:FULLY-SPECIFIED
:FORCE-ALL-JOINTS-BE-3DOF
:DEGREES
917
root 2.81409 16.0209 32.1054 1.5835 13.3359 361.994
lfemur -15.2843 17.089 -10.0721
ltibia 33.8399 0 0
lfoot -20.3992 -5.28783 0
ltoes -3.81339 0 0
rfemur -28.2829 -12.7452 -3.57624
rtibia 68.3449 0 0
rfoot -3.1548 -13.807 0
rtoes 10.7348 0 0
lowerback 1.72756 -1.59959 -2.18713
upperback -0.229126 -2.25313 -3.82551
thorax -1.18868 -1.12502 -2.63833
lowerneck -6.93753 -4.24765 0.0808717
upperneck 3.51365 -5.92553 4.42526
head 2.55374 -2.81612 1.12147
lclavicle 4.11202e-15 2.36602e-14 0
lhumerus -54.0887 -39.9593 110.801
lradius 59.1045 0 0
lwrist 17.222 0 0
lhand 33.7164 19.4604 0
lfingers 7.12502 0 0
lthumb 56.9265 35.4447 0
rclavicle 4.11202e-15 2.36602e-14 0
rhumerus -28.5243 -3.638 -63.6254
rradius 85.1468 0 0
rwrist -10.7092 0 0
rhand -4.47812 -20.5169 0
rfingers 7.12502 0 0
rthumb 21.1646 -767.546 0
918
root 2.75605 15.9959 32.13 1.77815 12.7361 362.106
lfemur -14.5293 16.4833 -9.59223
ltibia 32.718 0 0
lfoot -20.7449 -5.62859 0
ltoes -4.81386 0 0
rfemur -28.3778 -12.7963 -3.7497
rtibia 67.595 0 0
rfoot -3.74711 -13.1934 0
rtoes 8.7382 0 0
lowerback 1.56881 -1.55548 -2.0976
upperback -0.279672 -2.1902 -3.943
thorax -1.1551 -1.09508 -2.81613
lowerneck -6.93262 -4.07951 0.216067
upperneck 3.44187 -5.70764 4.38499
head 2.52006 -2.70865 1.09522
lclavicle 3.47749e-15 2.46687e-14 0
lhumerus -54.2783 -40.109 110.868
lradius 58.974 0 0
lwrist 17.5261 0 0
lhand 33.9762 19.65 0
lfingers 7.12502 0 0
lthumb 57.1513 35.4199 0
rclavicle 3.47749e-15 2.46687e-14 0
rhumerus -27.3371 -4.78891 -61.483
rradius 83.0983 0 0
rwrist -10.8375 0 0
rhand -5.76138 -21.6201 0
rfingers 7.12502 0 0
rthumb 19.9317 -768.746 0
919
root 2.69801 15.9708 32.1547 1.97279 12.1364 362.219
lfemur -13.7743 15.8777 -9.11242
ltibia 31.5961 0 0
lfoot -21.0907 -5.96936 0
ltoes -5.81433 0 0
rfemur -28.4727 -12.8474 -3.92317
rtibia 66.8452 0 0
rfoot -4.33942 -12.5797 0
rtoes 6.74154 0 0
lowerback 1.41006 -1.51137 -2.00806
upperback -0.330217 -2.12726 -4.0605
thorax -1.12153 -1.06515 -2.99393
lowerneck -6.92771 -3.91137 0.351262
upperneck 3.3701 -5.48975 4.34472
head 2.48637 -2.60119 1.06897
lclavicle 2.84295e-15 2.56772e-14 0
lhumerus -54.4679 -40.2587 110.934
lradius 58.8435 0 0
lwrist 17.8303 0 0
lhand 34.2359 19.8396 0
lfingers 7.12502 0 0
lthumb 57.3762 35.395 0
rclavicle 2.84295e-15 2.56772e-14 0
rhumerus -26.1499 -5.93982 -59.3406
rradius 81.0499 0 0
rwrist -10.9659 0 0
rhand -7.04464 -22.7232 0
rfingers 7.12502 0 0
rthumb 18.6987 -769.945 0
920
root 2.63997 15.9458 32.1794 2.16744 11.5366 362.331
lfemur -13.0194 15.272 -8.6326
ltibia 30.4742 0 0
lfoot -21.4364 -6.31012 0
ltoes -6.8148 0 0
rfemur -28.5676 -12.8985 -4.09664
rtibia 66.0953 0 0
rfoot -4.93173 -11.966 0
rtoes 4.74489 0 0
lowerback 1.25131 -1.46725 -1.91853
upperback -0.380762 -2.06433 -4.17799
thorax -1.08795 -1.03521 -3.17173
lowerneck -6.9228 -3.74324 0.486457
upperneck 3.29833 -5.27187 4.30444
head 2.45268 -2.49373 1.04272
lclavicle 2.20842e-15 2.66856e-14 0
lhumerus -54.6575 -40.4084 111
lradius 58.713 0 0
lwrist 18.1345 0 0
lhand 34.4957 20.0292 0
lfingers 7.12502 0 0
lthumb 57.601 35.3702 0
rclavicle 2.20842e-15 2.66856e-14 0
rhumerus -24.9628 -7.09072 -57.1982
rradius 79.0015 0 0
rwrist -11.0943 0 0
rhand -8.3279 -23.8263 0
rfingers 7.12502 0 0
rthumb 17.4658 -771.145 0
921
root 2.58194 15.9208 32.204 2.36209 10.9369 362.444
lfemur -12.2644 14.6663 -8.15278
ltibia 29.3523 0 0
lfoot -21.7821 -6.65089 0
ltoes -7.81527 0 0
rfemur -28.6626 -12.9496 -4.2701
rtibia 65.3455 0 0
rfoot -5.52404 -11.3523 0
rtoes 2.74823 0 0
lowerback 1.09255 -1.42314 -1.829
upperback -0.431308 -2.00139 -4.29549
thorax -1.05437 -1.00527 -3.34953
lowerneck -6.91789 -3.5751 0.621652
upperneck 3.22656 -5.05398 4.26417
head 2.41899 -2.38627 1.01648
lclavicle 1.57389e-15 2.76941e-14 0
lhumerus -54.8471 -40.5581 111.066
lradius 58.5824 0 0
lwrist 18.4386 0 0
lhand 34.7554 20.2189 0
lfingers 7.12502 0 0
lthumb 57.8259 35.3454 0
rclavicle 1.57389e-15 2.76941e-14 0
rhumerus -23.7756 -8.24163 -55.0558
rradius 76.953 0 0
rwrist -11.2227 0 0
rhand -9.61115 -24.9295 0
rfingers 7.12502 0 0
rthumb 16.2328 -772.344 0
922
root 2.5239 15.8958 32.2287 2.55674 10.3371 362.556
lfemur -11.5094 14.0607 -7.67296
ltibia 28.2304 0 0
lfoot -22.1279 -6.99165 0
ltoes -8.81574 0 0
rfemur -28.7575 -13.0007 -4.44357
rtibia 64.5956 0 0
rfoot -6.11635 -10.7387 0
rtoes 0.75158 0 0
lowerback 0.933803 -1.37903 -1.73946
upperback -0.481853 -1.93846 -4.41298
thorax -1.0208 -0.975334 -3.52732
lowerneck -6.91298 -3.40696 0.756847
upperneck 3.15479 -4.83609 4.2239
head 2.38531 -2.2788 0.990228
lclavicle 9.39351e-16 2.87026e-14 0
lhumerus -55.0367 -40.7078 111.133
lradius 58.4519 0 0
lwrist 18.7428 0 0
lhand 35.0152 20.4085 0
lfingers 7.12502 0 0
lthumb 58.0507 35.3206 0
rclavicle 9.39351e-16 2.87026e-14 0
rhumerus -22.5885 -9.39254 -52.9134
rradius 74.9046 0 0
rwrist -11.351 0 0
rhand -10.8944 -26.0326 0
rfingers 7.12502 0 0
rthumb 14.9998 -773.543 0
923
root 2.46586 15.8708 32.2533 2.75139 9.73737 362.669
lfemur -10.7545 13.455 -7.19314
ltibia 27.1085 0 0
lfoot -22.4736 -7.33242 0
ltoes -9.81621 0 0
rfemur -28.8524 -13.0518 -4.61703
rtibia 63.8458 0 0
rfoot -6.70866 -10.125 0
rtoes -1.24507 0 0
lowerback 0.775051 -1.33492 -1.64993
upperback -0.532398 -1.87552 -4.53047
thorax -0.987218 -0.945396 -3.70512
lowerneck -6.90807 -3.23882 0.892042
upperneck 3.08302 -4.6182 4.18362
head 2.35162 -2.17134 0.96398
lclavicle 3.04817e-16 2.9711e-14 0
lhumerus -55.2263 -40.8575 111.199
lradius 58.3214 0 0
lwrist 19.047 0 0
lhand 35.2749 20.5981 0
lfingers 7.12502 0 0
lthumb 58.2755 35.2958 0
rclavicle 3.04817e-16 2.9711e-14 0
rhumerus -21.4013 -10.5434 -50.771
rradius 72.8561 0 0
rwrist -11.4794 0 0
rhand -12.1777 -27.1358 0
rfingers 7.12502 0 0
rthumb 13.7669 -774.743 0
924
root 2.40782 15.8458 32.278 2.94603 9.13762 362.781
lfemur -9.99951 12.8493 -6.71333
ltibia 25.9866 0 0
lfoot -22.8193 -7.67319 0
ltoes -10.8167 0 0
rfemur -28.9473 -13.1029 -4.7905
rtibia 63.0959 0 0
rfoot -7.30098 -9.5113 0
rtoes -3.24173 0 0
lowerback 0.616299 -1.29081 -1.5604
upperback -0.582944 -1.81259 -4.64797
thorax -0.953641 -0.915459 -3.88292
lowerneck -6.90317 -3.07068 1.02724
upperneck 3.01124 -4.40032 4.14335
head 2.31793 -2.06388 0.937733
lclavicle -3.29717e-16 3.07195e-14 0
lhumerus -55.416 -41.0071 111.265
lradius 58.1909 0 0
lwrist 19.3511 0 0
lhand 35.5347 20.7877 0
lfingers 7.12502 0 0
lthumb 58.5004 35.2709 0
rclavicle -3.29717e-16 3.07195e-14 0
rhumerus -20.2141 -11.6944 -48.6286
rradius 70.8077 0 0
rwrist -11.6078 0 0
rhand -13.4609 -28.2389 0
rfingers 7.12502 0 0
rthumb 12.5339 -775.942 0
925
root 2.34978 15.8208 32.3026 3.14068 8.53787 362.894
lfemur -9.24454 12.2437 -6.23351
ltibia 24.8647 0 0
lfoot -23.165 -8.01395 0
ltoes -11.8172 0 0
rfemur -29.0422 -13.154 -4.96396
rtibia 62.3461 0 0
rfoot -7.89329 -8.89763 0
rtoes -5.23838 0 0
lowerback 0.457547 -1.24669 -1.47086
upperback -0.633489 -1.74966 -4.76546
thorax -0.920064 -0.885521 -4.06072
lowerneck -6.89826 -2.90254 1.16243
upperneck 2.93947 -4.18243 4.10307
head 2.28424 -1.95642 0.911485
lclavicle -9.64251e-16 3.1728e-14 0
lhumerus -55.6056 -41.1568 111.331
lradius 58.0604 0 0
lwrist 19.6553 0 0
lhand 35.7944 20.9773 0
lfingers 7.12502 0 0
lthumb 58.7252 35.2461 0
rclavicle -9.64251e-16 3.1728e-14 0
rhumerus -19.027 -12.8453 -46.4862
rradius 68.7592 0 0
rwrist -11.7361 0 0
rhand -14.7442 -29.342 0
rfingers 7.12502 0 0
rthumb 11.301 -777.142 0
